<?xml version="1.0" encoding="utf-8"?>
<!-- Generator: Adobe Illustrator 19.0.0, SVG Export Plug-In . SVG Version: 6.00 Build 0)  -->
<svg version="1.1" id="Layer_1" xmlns="http://www.w3.org/2000/svg" xmlns:xlink="http://www.w3.org/1999/xlink" x="0px" y="0px"
	 viewBox="75 342.6 434 139.1" style="enable-background:new 75 342.6 434 139.1;" xml:space="preserve">
<style type="text/css">
	.st0{fill:url(#SVGID_1_);}
</style>
<linearGradient id="SVGID_1_" gradientUnits="userSpaceOnUse" x1="75.6711" y1="412.9916" x2="493.0198" y2="407.3517">
	<stop  offset="0" style="stop-color:#04BDCD"/>
	<stop  offset="6.735983e-002" style="stop-color:#10A9D3"/>
	<stop  offset="0.172" style="stop-color:#2883DE"/>
	<stop  offset="0.5026" style="stop-color:#2D7BE1"/>
	<stop  offset="1" style="stop-color:#7D2AE7"/>
</linearGradient>
<path class="st0" d="M505.8,437.8c-0.7,0-1.4,0.5-1.7,1.4c-4.4,12.7-10.5,20.2-15.4,20.2c-2.8,0-4-3.2-4-8.2
	c0-12.4,7.4-38.7,11.2-50.8c0.4-1.4,0.7-2.7,0.7-3.8c0-3.5-1.9-5.2-6.7-5.2c-5.1,0-10.6,2-15.9,11.3c-1.8-8.2-7.4-11.9-15.2-11.9
	c-9,0-17.7,5.8-24.9,15.2c-7.2,9.4-15.5,12.5-21.9,10.9c4.6-11.1,6.2-19.4,6.2-25.7c0-9.7-4.8-15.5-12.5-15.5
	c-11.8,0-18.6,11.2-18.6,23.1c0,9.1,4.1,18.5,13.2,23.1c-7.7,17.3-18.8,32.9-23,32.9c-5.5,0-7.1-26.7-6.8-45.8
	c0.2-11,1.1-11.6,1.1-14.9c0-1.9-1.2-3.2-6.2-3.2c-11.6,0-15.2,9.8-15.7,21c-0.1,4.3-0.9,8.5-2,12.7C343,441.9,333,455,326.5,455
	c-3,0-3.8-3-3.8-6.9c0-12.4,6.9-28,6.9-41.2c0-9.8-4.3-15.9-12.3-15.9c-9.5,0-22,11.3-33.9,32.4c3.9-16.2,5.5-31.8-6.1-31.8
	c-2.5,0.1-5,0.7-7.2,1.9c-1.5,0.7-2.5,2.2-2.3,4c1.1,17.2-13.9,61.3-28,61.3c-2.6,0-3.8-2.8-3.8-7.3c0-12.4,7.4-38.7,11.1-50.7
	c0.5-1.6,0.7-2.9,0.7-4c0-3.3-2-5-6.7-5c-5.1,0-10.6,2-15.9,11.3c-1.9-8.2-7.4-11.9-15.3-11.9c-12.8,0-27,13.5-33.3,31.1
	c-8.4,23.5-25.3,46.2-48.1,46.2c-20.7,0-31.6-17.2-31.6-44.4c0-39.3,28.8-71.3,50.2-71.3c10.2,0,15.1,6.5,15.1,16.5
	c0,12.1-6.7,17.7-6.7,22.3c0,1.4,1.2,2.8,3.5,2.8c9.3,0,20.2-10.9,20.2-25.8c0-14.9-12.1-25.7-33.5-25.7c-35.3,0-70.8,35.5-70.8,81
	c0,36.2,17.9,58.1,48.8,58.1c21.1,0,39.5-16.4,49.4-35.5c1.2,15.8,8.3,24.1,19.3,24.1c9.8,0,17.6-5.8,23.7-16
	c2.3,10.7,8.5,15.9,16.5,15.9c9.2,0,16.8-5.8,24.1-16.6c-0.1,8.5,1.8,16.5,9.2,16.5c3.5,0,7.6-0.8,8.3-3.8
	c7.7-32,26.9-58.1,32.7-58.1c1.7,0,2.2,1.7,2.2,3.6c0,8.7-6.1,26.5-6.1,37.9c0,12.3,5.2,20.5,16,20.5c12,0,24.1-14.7,32.2-36.1
	c2.5,20,8,36.1,16.6,36.1c10.6,0,29.3-22.2,40.6-45.7c4.4,0.6,11.1,0.4,17.6-4.1c-2.7,6.9-4.3,14.5-4.3,22
	c0,21.8,10.4,27.9,19.4,27.9c9.8,0,17.6-5.8,23.7-16c2,9.3,7.1,15.9,16.5,15.9c14.7,0,27.4-15,27.4-27.3
	C508.8,439.7,507.4,437.8,505.8,437.8z M201.5,458.3c-5.9,0-8.2-6-8.2-14.8c0-15.5,10.6-41.2,21.8-41.2c4.8,0,6.7,5.7,6.7,12.8
	C221.8,430.7,211.7,458.3,201.5,458.3z M404.3,412.3c-3.5-4.2-4.8-9.9-4.8-15c0-6.3,2.3-11.6,5.1-11.6s3.6,2.7,3.6,6.5
	C408.1,398.4,405.9,407.6,404.3,412.3z M450.2,458.3c-5.9,0-8.2-6.9-8.2-14.8c0-14.9,10.6-41.2,21.8-41.2c4.9,0,6.6,5.7,6.6,12.8
	C470.4,430.7,460.5,458.3,450.2,458.3z"/>
</svg>
