<?xml version="1.0" encoding="UTF-8"?>
<svg id="Layer_1" data-name="Layer 1" xmlns="http://www.w3.org/2000/svg" viewBox="0 0 960 960">
  <defs>
    <style>
      .cls-1 {
        fill: #e70488;
      }

      .cls-1, .cls-2, .cls-3 {
        stroke-width: 0px;
      }

      .cls-2 {
        fill: #ffca00;
      }

      .cls-3 {
        fill: #130754;
      }
    </style>
  </defs>
  <path class="cls-3" d="M347.6,517.66c-11.49,0-23.2-4.76-30.53-14.08v50.37h-23.02v-124.34h20.82l.79,13.68c7.14-10.51,19.82-16.06,31.92-16.06,23.2,0,40.29,19.44,40.29,45.22s-17.07,45.23-40.27,45.22ZM340.47,444.29c-13.49,0-24.39,10.51-24.39,28.16s10.9,28.18,24.39,28.18,24.39-10.51,24.39-28.16-10.9-28.18-24.39-28.18Z"/>
  <path class="cls-3" d="M474.65,515.29l-.79-13.68c-7.14,10.51-19.83,16.06-31.93,16.05-23.2,0-40.29-19.43-40.29-45.21s17.06-45.22,40.29-45.21c12.1,0,24.79,5.6,31.93,16.06l.79-13.68h20.86v85.66h-20.86ZM449.07,444.3c-13.49,0-24.39,10.51-24.4,28.16-.01,17.65,10.9,28.17,24.39,28.17s24.4-10.51,24.4-28.16-10.9-28.17-24.39-28.17h0Z"/>
  <path class="cls-3" d="M575.95,515.31v-47.39c0-16.65-5.74-22.21-16.25-22.21s-22.81,9.91-22.81,21.8v47.79h-23.01v-85.67h21.03l1,15.87c5.75-10.91,18.64-18.24,31.73-18.24,22.8,0,31.34,15.87,31.34,37.08v50.97h-23.02Z"/>
  <path class="cls-3" d="M683.29,515.33l-.79-13.69c-7.14,10.51-19.83,16.06-31.92,16.06-23.2,0-40.29-19.44-40.29-45.22s17.06-45.21,40.29-45.21c11.49,0,23.19,4.77,30.53,14.08v-45h23.01v118.98h-20.83ZM657.71,444.33c-13.43,0-24.39,10.51-24.39,28.15s10.9,28.15,24.39,28.15,24.39-10.5,24.39-28.15-10.87-28.15-24.39-28.15Z"/>
  <path class="cls-3" d="M790.55,515.34l-.79-13.68c-7.14,10.51-19.83,16.05-31.93,16.05-23.2,0-40.29-19.43-40.29-45.22s17.06-45.21,40.29-45.21c12.1,0,24.79,5.6,31.93,16.07l.79-13.69h20.82v85.66h-20.82ZM764.97,444.35c-13.43,0-24.39,10.51-24.4,28.16-.01,17.65,10.91,28.13,24.39,28.13s24.4-10.51,24.4-28.16-10.9-28.13-24.39-28.13h0Z"/>
  <path class="cls-3" d="M862.32,518.13c-12.1-.1-23.95-3.46-34.3-9.73l3.77-15.86c6.94,4.16,17.45,9.52,30.14,9.52,9.12,0,15.47-2.78,15.47-9.92,0-6.14-6.55-8.33-18.24-11.1-21.02-4.57-28.55-15.67-28.55-27.77,0-13.49,10.51-26.17,33.71-26.17,14.08,0,26.38,6.14,29.1,7.73l-3.77,15.08c-7.49-4.51-16.04-6.97-24.78-7.14-9.31,0-13.88,3.17-13.88,8.33,0,5.74,5.95,8.33,15.07,10.51,22.61,4.76,31.73,15.27,31.73,26.77.04,18.43-13.44,29.74-35.46,29.74Z"/>
  <rect class="cls-3" x="105.88" y="371.27" width="26.96" height="55.98"/>
  <rect class="cls-3" x="105.88" y="486.27" width="26.96" height="55.98"/>
  <rect class="cls-2" x="105.88" y="443.6" width="26.96" height="26.41"/>
  <rect class="cls-3" x="62.58" y="417.3" width="26.96" height="186.1"/>
  <rect class="cls-3" x="148.3" y="532.46" width="26.96" height="55.98"/>
  <rect class="cls-3" x="148.3" y="417.37" width="26.96" height="55.98"/>
  <rect class="cls-1" x="148.3" y="489.7" width="26.96" height="26.41"/>
  <rect class="cls-3" x="190.71" y="356.69" width="26.96" height="186.1"/>
</svg>